<?xml version="1.0" encoding="UTF-8" standalone="no"?>
<!-- Created with Inkscape (http://www.inkscape.org/) -->

<svg
   xmlns:dc="http://purl.org/dc/elements/1.1/"
   xmlns:cc="http://creativecommons.org/ns#"
   xmlns:rdf="http://www.w3.org/1999/02/22-rdf-syntax-ns#"
   xmlns:svg="http://www.w3.org/2000/svg"
   xmlns="http://www.w3.org/2000/svg"
   xmlns:xlink="http://www.w3.org/1999/xlink"
   xmlns:sodipodi="http://sodipodi.sourceforge.net/DTD/sodipodi-0.dtd"
   xmlns:inkscape="http://www.inkscape.org/namespaces/inkscape"
   width="177.16534"
   height="141.73228"
   id="svg2"
   version="1.1"
   inkscape:version="0.91 r13725"
   sodipodi:docname="VortexDiff.svg"
   inkscape:export-filename="/home/rosik/vvhd/doc/images/VortexDiff.png"
   inkscape:export-xdpi="150"
   inkscape:export-ydpi="150">
  <defs
     id="defs4">
    <linearGradient
       id="linearGradient3906">
      <stop
         style="stop-color:#ffffff;stop-opacity:1;"
         offset="0"
         id="stop3908" />
      <stop
         id="stop3914"
         offset="0.5"
         style="stop-color:#ffffff;stop-opacity:1;" />
      <stop
         style="stop-color:#ffffff;stop-opacity:0;"
         offset="1"
         id="stop3910" />
    </linearGradient>
    <inkscape:perspective
       sodipodi:type="inkscape:persp3d"
       inkscape:vp_x="0 : 70.866142 : 1"
       inkscape:vp_y="0 : 1000 : 0"
       inkscape:vp_z="177.16534 : 70.866142 : 1"
       inkscape:persp3d-origin="88.582672 : 47.244095 : 1"
       id="perspective51" />
    <marker
       inkscape:stockid="Arrow1Mend"
       orient="auto"
       refY="0"
       refX="0"
       id="Arrow1Mend"
       style="overflow:visible">
      <path
         id="path5389"
         d="M 0,0 5,-5 -12.5,0 5,5 0,0 z"
         style="fill-rule:evenodd;stroke:#000000;stroke-width:1pt;marker-start:none"
         transform="matrix(-0.4,0,0,-0.4,-4,0)"
         inkscape:connector-curvature="0" />
    </marker>
    <marker
       inkscape:stockid="Arrow1Lend"
       orient="auto"
       refY="0"
       refX="0"
       id="Arrow1Lend"
       style="overflow:visible">
      <path
         id="path5383"
         d="M 0,0 5,-5 -12.5,0 5,5 0,0 z"
         style="fill-rule:evenodd;stroke:#000000;stroke-width:1pt;marker-start:none"
         transform="matrix(-0.8,0,0,-0.8,-10,0)"
         inkscape:connector-curvature="0" />
    </marker>
    <marker
       inkscape:stockid="Arrow1Mend"
       orient="auto"
       refY="0"
       refX="0"
       id="Arrow1Mend-1"
       style="overflow:visible">
      <path
         inkscape:connector-curvature="0"
         id="path5389-0"
         d="M 0,0 5,-5 -12.5,0 5,5 0,0 z"
         style="fill-rule:evenodd;stroke:#000000;stroke-width:1pt;marker-start:none"
         transform="matrix(-0.4,0,0,-0.4,-4,0)" />
    </marker>
    <marker
       inkscape:stockid="Arrow1Mend"
       orient="auto"
       refY="0"
       refX="0"
       id="Arrow1Mend-0"
       style="overflow:visible">
      <path
         id="path5389-3"
         d="M 0,0 5,-5 -12.5,0 5,5 0,0 z"
         style="fill-rule:evenodd;stroke:#000000;stroke-width:1pt;marker-start:none"
         transform="matrix(-0.4,0,0,-0.4,-4,0)"
         inkscape:connector-curvature="0" />
    </marker>
    <inkscape:perspective
       id="perspective3661"
       inkscape:persp3d-origin="0.5 : 0.33333333 : 1"
       inkscape:vp_z="1 : 0.5 : 1"
       inkscape:vp_y="0 : 1000 : 0"
       inkscape:vp_x="0 : 0.5 : 1"
       sodipodi:type="inkscape:persp3d" />
    <inkscape:perspective
       id="perspective3661-3"
       inkscape:persp3d-origin="0.5 : 0.33333333 : 1"
       inkscape:vp_z="1 : 0.5 : 1"
       inkscape:vp_y="0 : 1000 : 0"
       inkscape:vp_x="0 : 0.5 : 1"
       sodipodi:type="inkscape:persp3d" />
    <inkscape:perspective
       id="perspective3661-8"
       inkscape:persp3d-origin="0.5 : 0.33333333 : 1"
       inkscape:vp_z="1 : 0.5 : 1"
       inkscape:vp_y="0 : 1000 : 0"
       inkscape:vp_x="0 : 0.5 : 1"
       sodipodi:type="inkscape:persp3d" />
    <inkscape:perspective
       id="perspective3661-6"
       inkscape:persp3d-origin="0.5 : 0.33333333 : 1"
       inkscape:vp_z="1 : 0.5 : 1"
       inkscape:vp_y="0 : 1000 : 0"
       inkscape:vp_x="0 : 0.5 : 1"
       sodipodi:type="inkscape:persp3d" />
    <inkscape:perspective
       id="perspective3661-4"
       inkscape:persp3d-origin="0.5 : 0.33333333 : 1"
       inkscape:vp_z="1 : 0.5 : 1"
       inkscape:vp_y="0 : 1000 : 0"
       inkscape:vp_x="0 : 0.5 : 1"
       sodipodi:type="inkscape:persp3d" />
    <inkscape:perspective
       id="perspective3661-7"
       inkscape:persp3d-origin="0.5 : 0.33333333 : 1"
       inkscape:vp_z="1 : 0.5 : 1"
       inkscape:vp_y="0 : 1000 : 0"
       inkscape:vp_x="0 : 0.5 : 1"
       sodipodi:type="inkscape:persp3d" />
    <inkscape:perspective
       id="perspective3661-9"
       inkscape:persp3d-origin="0.5 : 0.33333333 : 1"
       inkscape:vp_z="1 : 0.5 : 1"
       inkscape:vp_y="0 : 1000 : 0"
       inkscape:vp_x="0 : 0.5 : 1"
       sodipodi:type="inkscape:persp3d" />
    <inkscape:perspective
       id="perspective3661-97"
       inkscape:persp3d-origin="0.5 : 0.33333333 : 1"
       inkscape:vp_z="1 : 0.5 : 1"
       inkscape:vp_y="0 : 1000 : 0"
       inkscape:vp_x="0 : 0.5 : 1"
       sodipodi:type="inkscape:persp3d" />
    <inkscape:perspective
       id="perspective3661-33"
       inkscape:persp3d-origin="0.5 : 0.33333333 : 1"
       inkscape:vp_z="1 : 0.5 : 1"
       inkscape:vp_y="0 : 1000 : 0"
       inkscape:vp_x="0 : 0.5 : 1"
       sodipodi:type="inkscape:persp3d" />
    <inkscape:perspective
       id="perspective3661-79"
       inkscape:persp3d-origin="0.5 : 0.33333333 : 1"
       inkscape:vp_z="1 : 0.5 : 1"
       inkscape:vp_y="0 : 1000 : 0"
       inkscape:vp_x="0 : 0.5 : 1"
       sodipodi:type="inkscape:persp3d" />
    <inkscape:perspective
       id="perspective3661-78"
       inkscape:persp3d-origin="0.5 : 0.33333333 : 1"
       inkscape:vp_z="1 : 0.5 : 1"
       inkscape:vp_y="0 : 1000 : 0"
       inkscape:vp_x="0 : 0.5 : 1"
       sodipodi:type="inkscape:persp3d" />
    <inkscape:perspective
       id="perspective3661-1"
       inkscape:persp3d-origin="0.5 : 0.33333333 : 1"
       inkscape:vp_z="1 : 0.5 : 1"
       inkscape:vp_y="0 : 1000 : 0"
       inkscape:vp_x="0 : 0.5 : 1"
       sodipodi:type="inkscape:persp3d" />
    <inkscape:perspective
       id="perspective3661-98"
       inkscape:persp3d-origin="0.5 : 0.33333333 : 1"
       inkscape:vp_z="1 : 0.5 : 1"
       inkscape:vp_y="0 : 1000 : 0"
       inkscape:vp_x="0 : 0.5 : 1"
       sodipodi:type="inkscape:persp3d" />
    <inkscape:perspective
       id="perspective3661-43"
       inkscape:persp3d-origin="0.5 : 0.33333333 : 1"
       inkscape:vp_z="1 : 0.5 : 1"
       inkscape:vp_y="0 : 1000 : 0"
       inkscape:vp_x="0 : 0.5 : 1"
       sodipodi:type="inkscape:persp3d" />
    <inkscape:perspective
       id="perspective3661-38"
       inkscape:persp3d-origin="0.5 : 0.33333333 : 1"
       inkscape:vp_z="1 : 0.5 : 1"
       inkscape:vp_y="0 : 1000 : 0"
       inkscape:vp_x="0 : 0.5 : 1"
       sodipodi:type="inkscape:persp3d" />
    <inkscape:perspective
       id="perspective3661-799"
       inkscape:persp3d-origin="0.5 : 0.33333333 : 1"
       inkscape:vp_z="1 : 0.5 : 1"
       inkscape:vp_y="0 : 1000 : 0"
       inkscape:vp_x="0 : 0.5 : 1"
       sodipodi:type="inkscape:persp3d" />
    <inkscape:perspective
       id="perspective3661-437"
       inkscape:persp3d-origin="0.5 : 0.33333333 : 1"
       inkscape:vp_z="1 : 0.5 : 1"
       inkscape:vp_y="0 : 1000 : 0"
       inkscape:vp_x="0 : 0.5 : 1"
       sodipodi:type="inkscape:persp3d" />
    <inkscape:perspective
       id="perspective3661-2"
       inkscape:persp3d-origin="0.5 : 0.33333333 : 1"
       inkscape:vp_z="1 : 0.5 : 1"
       inkscape:vp_y="0 : 1000 : 0"
       inkscape:vp_x="0 : 0.5 : 1"
       sodipodi:type="inkscape:persp3d" />
    <inkscape:perspective
       id="perspective3661-0"
       inkscape:persp3d-origin="0.5 : 0.33333333 : 1"
       inkscape:vp_z="1 : 0.5 : 1"
       inkscape:vp_y="0 : 1000 : 0"
       inkscape:vp_x="0 : 0.5 : 1"
       sodipodi:type="inkscape:persp3d" />
    <inkscape:perspective
       id="perspective3661-75"
       inkscape:persp3d-origin="0.5 : 0.33333333 : 1"
       inkscape:vp_z="1 : 0.5 : 1"
       inkscape:vp_y="0 : 1000 : 0"
       inkscape:vp_x="0 : 0.5 : 1"
       sodipodi:type="inkscape:persp3d" />
    <inkscape:perspective
       id="perspective3661-41"
       inkscape:persp3d-origin="0.5 : 0.33333333 : 1"
       inkscape:vp_z="1 : 0.5 : 1"
       inkscape:vp_y="0 : 1000 : 0"
       inkscape:vp_x="0 : 0.5 : 1"
       sodipodi:type="inkscape:persp3d" />
    <inkscape:perspective
       id="perspective3661-17"
       inkscape:persp3d-origin="0.5 : 0.33333333 : 1"
       inkscape:vp_z="1 : 0.5 : 1"
       inkscape:vp_y="0 : 1000 : 0"
       inkscape:vp_x="0 : 0.5 : 1"
       sodipodi:type="inkscape:persp3d" />
    <inkscape:perspective
       id="perspective3661-08"
       inkscape:persp3d-origin="0.5 : 0.33333333 : 1"
       inkscape:vp_z="1 : 0.5 : 1"
       inkscape:vp_y="0 : 1000 : 0"
       inkscape:vp_x="0 : 0.5 : 1"
       sodipodi:type="inkscape:persp3d" />
    <inkscape:perspective
       id="perspective3661-16"
       inkscape:persp3d-origin="0.5 : 0.33333333 : 1"
       inkscape:vp_z="1 : 0.5 : 1"
       inkscape:vp_y="0 : 1000 : 0"
       inkscape:vp_x="0 : 0.5 : 1"
       sodipodi:type="inkscape:persp3d" />
    <inkscape:perspective
       id="perspective3661-19"
       inkscape:persp3d-origin="0.5 : 0.33333333 : 1"
       inkscape:vp_z="1 : 0.5 : 1"
       inkscape:vp_y="0 : 1000 : 0"
       inkscape:vp_x="0 : 0.5 : 1"
       sodipodi:type="inkscape:persp3d" />
    <inkscape:perspective
       id="perspective3661-80"
       inkscape:persp3d-origin="0.5 : 0.33333333 : 1"
       inkscape:vp_z="1 : 0.5 : 1"
       inkscape:vp_y="0 : 1000 : 0"
       inkscape:vp_x="0 : 0.5 : 1"
       sodipodi:type="inkscape:persp3d" />
    <inkscape:perspective
       id="perspective3661-02"
       inkscape:persp3d-origin="0.5 : 0.33333333 : 1"
       inkscape:vp_z="1 : 0.5 : 1"
       inkscape:vp_y="0 : 1000 : 0"
       inkscape:vp_x="0 : 0.5 : 1"
       sodipodi:type="inkscape:persp3d" />
    <inkscape:perspective
       id="perspective3661-756"
       inkscape:persp3d-origin="0.5 : 0.33333333 : 1"
       inkscape:vp_z="1 : 0.5 : 1"
       inkscape:vp_y="0 : 1000 : 0"
       inkscape:vp_x="0 : 0.5 : 1"
       sodipodi:type="inkscape:persp3d" />
    <inkscape:perspective
       id="perspective3661-63"
       inkscape:persp3d-origin="0.5 : 0.33333333 : 1"
       inkscape:vp_z="1 : 0.5 : 1"
       inkscape:vp_y="0 : 1000 : 0"
       inkscape:vp_x="0 : 0.5 : 1"
       sodipodi:type="inkscape:persp3d" />
    <inkscape:perspective
       id="perspective3661-74"
       inkscape:persp3d-origin="0.5 : 0.33333333 : 1"
       inkscape:vp_z="1 : 0.5 : 1"
       inkscape:vp_y="0 : 1000 : 0"
       inkscape:vp_x="0 : 0.5 : 1"
       sodipodi:type="inkscape:persp3d" />
    <inkscape:perspective
       id="perspective3661-70"
       inkscape:persp3d-origin="0.5 : 0.33333333 : 1"
       inkscape:vp_z="1 : 0.5 : 1"
       inkscape:vp_y="0 : 1000 : 0"
       inkscape:vp_x="0 : 0.5 : 1"
       sodipodi:type="inkscape:persp3d" />
    <inkscape:perspective
       id="perspective3661-5"
       inkscape:persp3d-origin="0.5 : 0.33333333 : 1"
       inkscape:vp_z="1 : 0.5 : 1"
       inkscape:vp_y="0 : 1000 : 0"
       inkscape:vp_x="0 : 0.5 : 1"
       sodipodi:type="inkscape:persp3d" />
    <inkscape:perspective
       id="perspective3661-415"
       inkscape:persp3d-origin="0.5 : 0.33333333 : 1"
       inkscape:vp_z="1 : 0.5 : 1"
       inkscape:vp_y="0 : 1000 : 0"
       inkscape:vp_x="0 : 0.5 : 1"
       sodipodi:type="inkscape:persp3d" />
    <inkscape:perspective
       id="perspective3661-55"
       inkscape:persp3d-origin="0.5 : 0.33333333 : 1"
       inkscape:vp_z="1 : 0.5 : 1"
       inkscape:vp_y="0 : 1000 : 0"
       inkscape:vp_x="0 : 0.5 : 1"
       sodipodi:type="inkscape:persp3d" />
    <inkscape:perspective
       id="perspective3661-83"
       inkscape:persp3d-origin="0.5 : 0.33333333 : 1"
       inkscape:vp_z="1 : 0.5 : 1"
       inkscape:vp_y="0 : 1000 : 0"
       inkscape:vp_x="0 : 0.5 : 1"
       sodipodi:type="inkscape:persp3d" />
    <inkscape:perspective
       id="perspective3661-22"
       inkscape:persp3d-origin="0.5 : 0.33333333 : 1"
       inkscape:vp_z="1 : 0.5 : 1"
       inkscape:vp_y="0 : 1000 : 0"
       inkscape:vp_x="0 : 0.5 : 1"
       sodipodi:type="inkscape:persp3d" />
    <inkscape:perspective
       id="perspective3661-34"
       inkscape:persp3d-origin="0.5 : 0.33333333 : 1"
       inkscape:vp_z="1 : 0.5 : 1"
       inkscape:vp_y="0 : 1000 : 0"
       inkscape:vp_x="0 : 0.5 : 1"
       sodipodi:type="inkscape:persp3d" />
    <inkscape:perspective
       id="perspective3661-633"
       inkscape:persp3d-origin="0.5 : 0.33333333 : 1"
       inkscape:vp_z="1 : 0.5 : 1"
       inkscape:vp_y="0 : 1000 : 0"
       inkscape:vp_x="0 : 0.5 : 1"
       sodipodi:type="inkscape:persp3d" />
    <inkscape:perspective
       id="perspective3661-39"
       inkscape:persp3d-origin="0.5 : 0.33333333 : 1"
       inkscape:vp_z="1 : 0.5 : 1"
       inkscape:vp_y="0 : 1000 : 0"
       inkscape:vp_x="0 : 0.5 : 1"
       sodipodi:type="inkscape:persp3d" />
    <inkscape:perspective
       id="perspective3661-58"
       inkscape:persp3d-origin="0.5 : 0.33333333 : 1"
       inkscape:vp_z="1 : 0.5 : 1"
       inkscape:vp_y="0 : 1000 : 0"
       inkscape:vp_x="0 : 0.5 : 1"
       sodipodi:type="inkscape:persp3d" />
    <inkscape:perspective
       id="perspective3661-47"
       inkscape:persp3d-origin="0.5 : 0.33333333 : 1"
       inkscape:vp_z="1 : 0.5 : 1"
       inkscape:vp_y="0 : 1000 : 0"
       inkscape:vp_x="0 : 0.5 : 1"
       sodipodi:type="inkscape:persp3d" />
    <inkscape:perspective
       id="perspective3661-71"
       inkscape:persp3d-origin="0.5 : 0.33333333 : 1"
       inkscape:vp_z="1 : 0.5 : 1"
       inkscape:vp_y="0 : 1000 : 0"
       inkscape:vp_x="0 : 0.5 : 1"
       sodipodi:type="inkscape:persp3d" />
    <inkscape:perspective
       id="perspective3661-385"
       inkscape:persp3d-origin="0.5 : 0.33333333 : 1"
       inkscape:vp_z="1 : 0.5 : 1"
       inkscape:vp_y="0 : 1000 : 0"
       inkscape:vp_x="0 : 0.5 : 1"
       sodipodi:type="inkscape:persp3d" />
    <inkscape:perspective
       id="perspective3661-87"
       inkscape:persp3d-origin="0.5 : 0.33333333 : 1"
       inkscape:vp_z="1 : 0.5 : 1"
       inkscape:vp_y="0 : 1000 : 0"
       inkscape:vp_x="0 : 0.5 : 1"
       sodipodi:type="inkscape:persp3d" />
    <inkscape:perspective
       id="perspective3661-080"
       inkscape:persp3d-origin="0.5 : 0.33333333 : 1"
       inkscape:vp_z="1 : 0.5 : 1"
       inkscape:vp_y="0 : 1000 : 0"
       inkscape:vp_x="0 : 0.5 : 1"
       sodipodi:type="inkscape:persp3d" />
    <inkscape:perspective
       id="perspective3661-35"
       inkscape:persp3d-origin="0.5 : 0.33333333 : 1"
       inkscape:vp_z="1 : 0.5 : 1"
       inkscape:vp_y="0 : 1000 : 0"
       inkscape:vp_x="0 : 0.5 : 1"
       sodipodi:type="inkscape:persp3d" />
    <linearGradient
       inkscape:collect="always"
       xlink:href="#linearGradient3906"
       id="linearGradient3912"
       x1="-39.563301"
       y1="75.599611"
       x2="23.694508"
       y2="75.599611"
       gradientUnits="userSpaceOnUse"
       gradientTransform="matrix(1.419244,0,0,1.0953151,13.108584,-12.748989)" />
  </defs>
  <sodipodi:namedview
     id="base"
     pagecolor="#ffffff"
     bordercolor="#666666"
     borderopacity="1.0"
     inkscape:pageopacity="1"
     inkscape:pageshadow="2"
     inkscape:zoom="2.3001113"
     inkscape:cx="113.01563"
     inkscape:cy="75.437253"
     inkscape:document-units="px"
     inkscape:current-layer="layer3"
     showgrid="false"
     units="mm"
     showguides="true"
     inkscape:guide-bbox="true"
     inkscape:snap-center="true"
     inkscape:object-paths="false"
     inkscape:snap-object-midpoints="true"
     inkscape:snap-nodes="true"
     inkscape:object-nodes="true"
     inkscape:snap-midpoints="true"
     inkscape:snap-intersection-paths="false"
     inkscape:window-width="1364"
     inkscape:window-height="750"
     inkscape:window-x="0"
     inkscape:window-y="16"
     inkscape:window-maximized="1"
     inkscape:snap-global="true"
     inkscape:snap-to-guides="true">
    <sodipodi:guide
       position="200.425,200"
       orientation="0,1"
       id="guide4272"
       inkscape:label=""
       inkscape:color="rgb(0,0,255)" />
    <sodipodi:guide
       position="150,249.11838"
       orientation="1,0"
       id="guide4274"
       inkscape:label=""
       inkscape:color="rgb(0,0,255)" />
    <sodipodi:guide
       position="169.55702,250"
       orientation="0,1"
       id="guide4276"
       inkscape:label=""
       inkscape:color="rgb(0,0,255)" />
    <sodipodi:guide
       position="200,212.59841"
       orientation="1,0"
       id="guide4278"
       inkscape:label=""
       inkscape:color="rgb(0,0,255)" />
  </sodipodi:namedview>
  <metadata
     id="metadata7">
    <rdf:RDF>
      <cc:Work
         rdf:about="">
        <dc:format>image/svg+xml</dc:format>
        <dc:type
           rdf:resource="http://purl.org/dc/dcmitype/StillImage" />
        <dc:title></dc:title>
      </cc:Work>
    </rdf:RDF>
  </metadata>
  <g
     inkscape:label="Body"
     inkscape:groupmode="layer"
     id="layer1"
     transform="translate(0,-910.63005)"
     style="display:inline">
    <path
       sodipodi:type="arc"
       style="fill:#000000;fill-opacity:1;fill-rule:evenodd;stroke:none"
       id="path2989-6"
       sodipodi:cx="120.25376"
       sodipodi:cy="137.98882"
       sodipodi:rx="34.636196"
       sodipodi:ry="13.231806"
       d="m 154.88996,137.98882 a 34.636196,13.231806 0 0 1 -34.6362,13.2318 34.636196,13.231806 0 0 1 -34.636195,-13.2318 34.636196,13.231806 0 0 1 34.636195,-13.23181 34.636196,13.231806 0 0 1 34.6362,13.23181 z"
       transform="matrix(0.07672552,0,0,0.20084027,46.546848,942.24466)" />
    <path
       sodipodi:type="arc"
       style="fill:#000000;fill-opacity:1;fill-rule:evenodd;stroke:none;display:inline"
       id="path2989-6-94"
       sodipodi:cx="120.25376"
       sodipodi:cy="137.98882"
       sodipodi:rx="34.636196"
       sodipodi:ry="13.231806"
       d="m 154.88996,137.98882 a 34.636196,13.231806 0 0 1 -34.6362,13.2318 34.636196,13.231806 0 0 1 -34.636195,-13.2318 34.636196,13.231806 0 0 1 34.636195,-13.23181 34.636196,13.231806 0 0 1 34.6362,13.23181 z"
       transform="matrix(0.07672552,0,0,0.20084027,0.77298399,894.22015)" />
    <path
       sodipodi:type="arc"
       style="fill:#000000;fill-opacity:1;fill-rule:evenodd;stroke:none;display:inline"
       id="path2989-6-0"
       sodipodi:cx="120.25376"
       sodipodi:cy="137.98882"
       sodipodi:rx="34.636196"
       sodipodi:ry="13.231806"
       d="m 154.88996,137.98882 a 34.636196,13.231806 0 0 1 -34.6362,13.2318 34.636196,13.231806 0 0 1 -34.636195,-13.2318 34.636196,13.231806 0 0 1 34.636195,-13.23181 34.636196,13.231806 0 0 1 34.6362,13.23181 z"
       transform="matrix(0.07672552,0,0,0.20084027,0.99036476,923.78394)" />
    <path
       sodipodi:type="arc"
       style="fill:#000000;fill-opacity:1;fill-rule:evenodd;stroke:none;display:inline"
       id="path2989-6-75"
       sodipodi:cx="120.25376"
       sodipodi:cy="137.98882"
       sodipodi:rx="34.636196"
       sodipodi:ry="13.231806"
       d="m 154.88996,137.98882 a 34.636196,13.231806 0 0 1 -34.6362,13.2318 34.636196,13.231806 0 0 1 -34.636195,-13.2318 34.636196,13.231806 0 0 1 34.636195,-13.23181 34.636196,13.231806 0 0 1 34.6362,13.23181 z"
       transform="matrix(0.07672552,0,0,0.20084027,-2.0529663,963.782)" />
    <path
       sodipodi:type="arc"
       style="fill:#000000;fill-opacity:1;fill-rule:evenodd;stroke:none;display:inline"
       id="path2989-6-83"
       sodipodi:cx="120.25376"
       sodipodi:cy="137.98882"
       sodipodi:rx="34.636196"
       sodipodi:ry="13.231806"
       d="m 154.88996,137.98882 a 34.636196,13.231806 0 0 1 -34.6362,13.2318 34.636196,13.231806 0 0 1 -34.636195,-13.2318 34.636196,13.231806 0 0 1 34.636195,-13.23181 34.636196,13.231806 0 0 1 34.6362,13.23181 z"
       transform="matrix(0.07672552,0,0,0.20084027,-0.74868154,982.25937)" />
    <path
       sodipodi:type="arc"
       style="fill:#000000;fill-opacity:1;fill-rule:evenodd;stroke:none;display:inline"
       id="path2989-6-90"
       sodipodi:cx="120.25376"
       sodipodi:cy="137.98882"
       sodipodi:rx="34.636196"
       sodipodi:ry="13.231806"
       d="m 154.88996,137.98882 a 34.636196,13.231806 0 0 1 -34.6362,13.2318 34.636196,13.231806 0 0 1 -34.636195,-13.2318 34.636196,13.231806 0 0 1 34.636195,-13.23181 34.636196,13.231806 0 0 1 34.6362,13.23181 z"
       transform="matrix(0.07672552,0,0,0.20084027,7.2944077,989.8677)" />
    <path
       sodipodi:type="arc"
       style="fill:#000000;fill-opacity:1;fill-rule:evenodd;stroke:none;display:inline"
       id="path2989-6-71"
       sodipodi:cx="120.25376"
       sodipodi:cy="137.98882"
       sodipodi:rx="34.636196"
       sodipodi:ry="13.231806"
       d="m 154.88996,137.98882 a 34.636196,13.231806 0 0 1 -34.6362,13.2318 34.636196,13.231806 0 0 1 -34.636195,-13.2318 34.636196,13.231806 0 0 1 34.636195,-13.23181 34.636196,13.231806 0 0 1 34.6362,13.23181 z"
       transform="matrix(0.07672552,0,0,0.20084027,7.0770269,971.82509)" />
    <path
       sodipodi:type="arc"
       style="fill:#000000;fill-opacity:1;fill-rule:evenodd;stroke:none;display:inline"
       id="path2989-6-32"
       sodipodi:cx="120.25376"
       sodipodi:cy="137.98882"
       sodipodi:rx="34.636196"
       sodipodi:ry="13.231806"
       d="m 154.88996,137.98882 a 34.636196,13.231806 0 0 1 -34.6362,13.2318 34.636196,13.231806 0 0 1 -34.636195,-13.2318 34.636196,13.231806 0 0 1 34.636195,-13.23181 34.636196,13.231806 0 0 1 34.6362,13.23181 z"
       transform="matrix(0.07672552,0,0,0.20084027,2.7294111,952.04344)" />
    <path
       sodipodi:type="arc"
       style="fill:#000000;fill-opacity:1;fill-rule:evenodd;stroke:none;display:inline"
       id="path2989-6-2"
       sodipodi:cx="120.25376"
       sodipodi:cy="137.98882"
       sodipodi:rx="34.636196"
       sodipodi:ry="13.231806"
       d="m 154.88996,137.98882 a 34.636196,13.231806 0 0 1 -34.6362,13.2318 34.636196,13.231806 0 0 1 -34.636195,-13.2318 34.636196,13.231806 0 0 1 34.636195,-13.23181 34.636196,13.231806 0 0 1 34.6362,13.23181 z"
       transform="matrix(0.07672552,0,0,0.20084027,-0.74868156,938.56583)" />
    <path
       sodipodi:type="arc"
       style="fill:#000000;fill-opacity:1;fill-rule:evenodd;stroke:none;display:inline"
       id="path2989-6-21"
       sodipodi:cx="120.25376"
       sodipodi:cy="137.98882"
       sodipodi:rx="34.636196"
       sodipodi:ry="13.231806"
       d="m 154.88996,137.98882 a 34.636196,13.231806 0 0 1 -34.6362,13.2318 34.636196,13.231806 0 0 1 -34.636195,-13.2318 34.636196,13.231806 0 0 1 34.636195,-13.23181 34.636196,13.231806 0 0 1 34.6362,13.23181 z"
       transform="matrix(0.07672552,0,0,0.20084027,5.7727422,909.21942)" />
    <path
       sodipodi:type="arc"
       style="fill:#000000;fill-opacity:1;fill-rule:evenodd;stroke:none;display:inline"
       id="path2989-6-711"
       sodipodi:cx="120.25376"
       sodipodi:cy="137.98882"
       sodipodi:rx="34.636196"
       sodipodi:ry="13.231806"
       d="m 154.88996,137.98882 a 34.636196,13.231806 0 0 1 -34.6362,13.2318 34.636196,13.231806 0 0 1 -34.636195,-13.2318 34.636196,13.231806 0 0 1 34.636195,-13.23181 34.636196,13.231806 0 0 1 34.6362,13.23181 z"
       transform="matrix(0.07672552,0,0,0.20084027,16.641782,900.74158)" />
    <path
       sodipodi:type="arc"
       style="fill:#000000;fill-opacity:1;fill-rule:evenodd;stroke:none;display:inline"
       id="path2989-6-04"
       sodipodi:cx="120.25376"
       sodipodi:cy="137.98882"
       sodipodi:rx="34.636196"
       sodipodi:ry="13.231806"
       d="m 154.88996,137.98882 a 34.636196,13.231806 0 0 1 -34.6362,13.2318 34.636196,13.231806 0 0 1 -34.636195,-13.2318 34.636196,13.231806 0 0 1 34.636195,-13.23181 34.636196,13.231806 0 0 1 34.6362,13.23181 z"
       transform="matrix(0.07672552,0,0,0.20084027,14.902736,920.08847)" />
    <path
       sodipodi:type="arc"
       style="fill:#000000;fill-opacity:1;fill-rule:evenodd;stroke:none;display:inline"
       id="path2989-6-5"
       sodipodi:cx="120.25376"
       sodipodi:cy="137.98882"
       sodipodi:rx="34.636196"
       sodipodi:ry="13.231806"
       d="m 154.88996,137.98882 a 34.636196,13.231806 0 0 1 -34.6362,13.2318 34.636196,13.231806 0 0 1 -34.636195,-13.2318 34.636196,13.231806 0 0 1 34.636195,-13.23181 34.636196,13.231806 0 0 1 34.6362,13.23181 z"
       transform="matrix(0.07672552,0,0,0.20084027,10.989881,935.42468)" />
    <path
       sodipodi:type="arc"
       style="fill:#000000;fill-opacity:1;fill-rule:evenodd;stroke:none;display:inline"
       id="path2989-6-62"
       sodipodi:cx="120.25376"
       sodipodi:cy="137.98882"
       sodipodi:rx="34.636196"
       sodipodi:ry="13.231806"
       d="m 154.88996,137.98882 a 34.636196,13.231806 0 0 1 -34.6362,13.2318 34.636196,13.231806 0 0 1 -34.636195,-13.2318 34.636196,13.231806 0 0 1 34.636195,-13.23181 34.636196,13.231806 0 0 1 34.6362,13.23181 z"
       transform="matrix(0.07672552,0,0,0.20084027,14.902735,946.60892)" />
    <path
       sodipodi:type="arc"
       style="fill:#000000;fill-opacity:1;fill-rule:evenodd;stroke:none;display:inline"
       id="path2989-6-64"
       sodipodi:cx="120.25376"
       sodipodi:cy="137.98882"
       sodipodi:rx="34.636196"
       sodipodi:ry="13.231806"
       d="m 154.88996,137.98882 a 34.636196,13.231806 0 0 1 -34.6362,13.2318 34.636196,13.231806 0 0 1 -34.636195,-13.2318 34.636196,13.231806 0 0 1 34.636195,-13.23181 34.636196,13.231806 0 0 1 34.6362,13.23181 z"
       transform="matrix(0.07672552,0,0,0.20084027,14.467974,961.17343)" />
    <path
       sodipodi:type="arc"
       style="fill:#000000;fill-opacity:1;fill-rule:evenodd;stroke:none;display:inline"
       id="path2989-6-81"
       sodipodi:cx="120.25376"
       sodipodi:cy="137.98882"
       sodipodi:rx="34.636196"
       sodipodi:ry="13.231806"
       d="m 154.88996,137.98882 a 34.636196,13.231806 0 0 1 -34.6362,13.2318 34.636196,13.231806 0 0 1 -34.636195,-13.2318 34.636196,13.231806 0 0 1 34.636195,-13.23181 34.636196,13.231806 0 0 1 34.6362,13.23181 z"
       transform="matrix(0.07672552,0,0,0.20084027,20.119875,970.52081)" />
    <path
       sodipodi:type="arc"
       style="fill:#000000;fill-opacity:1;fill-rule:evenodd;stroke:none;display:inline"
       id="path2989-6-29"
       sodipodi:cx="120.25376"
       sodipodi:cy="137.98882"
       sodipodi:rx="34.636196"
       sodipodi:ry="13.231806"
       d="m 154.88996,137.98882 a 34.636196,13.231806 0 0 1 -34.6362,13.2318 34.636196,13.231806 0 0 1 -34.636195,-13.2318 34.636196,13.231806 0 0 1 34.636195,-13.23181 34.636196,13.231806 0 0 1 34.6362,13.23181 z"
       transform="matrix(0.07672552,0,0,0.20084027,15.554878,982.47675)" />
    <path
       sodipodi:type="arc"
       style="fill:#000000;fill-opacity:1;fill-rule:evenodd;stroke:none;display:inline"
       id="path2989-6-4"
       sodipodi:cx="120.25376"
       sodipodi:cy="137.98882"
       sodipodi:rx="34.636196"
       sodipodi:ry="13.231806"
       d="m 154.88996,137.98882 a 34.636196,13.231806 0 0 1 -34.6362,13.2318 34.636196,13.231806 0 0 1 -34.636195,-13.2318 34.636196,13.231806 0 0 1 34.636195,-13.23181 34.636196,13.231806 0 0 1 34.6362,13.23181 z"
       transform="matrix(0.07672552,0,0,0.20084027,-3.13987,999.86723)" />
    <path
       sodipodi:type="arc"
       style="fill:#000000;fill-opacity:1;fill-rule:evenodd;stroke:none;display:inline"
       id="path2989-6-79"
       sodipodi:cx="120.25376"
       sodipodi:cy="137.98882"
       sodipodi:rx="34.636196"
       sodipodi:ry="13.231806"
       d="m 154.88996,137.98882 a 34.636196,13.231806 0 0 1 -34.6362,13.2318 34.636196,13.231806 0 0 1 -34.636195,-13.2318 34.636196,13.231806 0 0 1 34.636195,-13.23181 34.636196,13.231806 0 0 1 34.6362,13.23181 z"
       transform="matrix(0.07672552,0,0,0.20084027,13.71801,1001.6063)" />
    <path
       sodipodi:type="arc"
       style="fill:#000000;fill-opacity:1;fill-rule:evenodd;stroke:none;display:inline"
       id="path2989-6-91"
       sodipodi:cx="120.25376"
       sodipodi:cy="137.98882"
       sodipodi:rx="34.636196"
       sodipodi:ry="13.231806"
       d="m 154.88996,137.98882 a 34.636196,13.231806 0 0 1 -34.6362,13.2318 34.636196,13.231806 0 0 1 -34.636195,-13.2318 34.636196,13.231806 0 0 1 34.636195,-13.23181 34.636196,13.231806 0 0 1 34.6362,13.23181 z"
       transform="matrix(0.07672552,0,0,0.20084027,5.7727422,1016.3882)" />
    <path
       sodipodi:type="arc"
       style="fill:#000000;fill-opacity:1;fill-rule:evenodd;stroke:none;display:inline"
       id="path2989-6-608"
       sodipodi:cx="120.25376"
       sodipodi:cy="137.98882"
       sodipodi:rx="34.636196"
       sodipodi:ry="13.231806"
       d="m 154.88996,137.98882 a 34.636196,13.231806 0 0 1 -34.6362,13.2318 34.636196,13.231806 0 0 1 -34.636195,-13.2318 34.636196,13.231806 0 0 1 34.636195,-13.23181 34.636196,13.231806 0 0 1 34.6362,13.23181 z"
       transform="matrix(0.07672552,0,0,0.20084027,30.988915,911.82798)" />
    <path
       sodipodi:type="arc"
       style="fill:#000000;fill-opacity:1;fill-rule:evenodd;stroke:none;display:inline"
       id="path2989-6-39"
       sodipodi:cx="120.25376"
       sodipodi:cy="137.98882"
       sodipodi:rx="34.636196"
       sodipodi:ry="13.231806"
       d="m 154.88996,137.98882 a 34.636196,13.231806 0 0 1 -34.6362,13.2318 34.636196,13.231806 0 0 1 -34.636195,-13.2318 34.636196,13.231806 0 0 1 34.636195,-13.23181 34.636196,13.231806 0 0 1 34.6362,13.23181 z"
       transform="matrix(0.07672552,0,0,0.20084027,24.25011,927.91417)" />
    <path
       sodipodi:type="arc"
       style="fill:#000000;fill-opacity:1;fill-rule:evenodd;stroke:none;display:inline"
       id="path2989-6-49"
       sodipodi:cx="120.25376"
       sodipodi:cy="137.98882"
       sodipodi:rx="34.636196"
       sodipodi:ry="13.231806"
       d="m 154.88996,137.98882 a 34.636196,13.231806 0 0 1 -34.6362,13.2318 34.636196,13.231806 0 0 1 -34.636195,-13.2318 34.636196,13.231806 0 0 1 34.636195,-13.23181 34.636196,13.231806 0 0 1 34.6362,13.23181 z"
       transform="matrix(0.07672552,0,0,0.20084027,24.902252,955.30415)" />
    <path
       sodipodi:type="arc"
       style="fill:#000000;fill-opacity:1;fill-rule:evenodd;stroke:none;display:inline"
       id="path2989-6-852"
       sodipodi:cx="120.25376"
       sodipodi:cy="137.98882"
       sodipodi:rx="34.636196"
       sodipodi:ry="13.231806"
       d="m 154.88996,137.98882 a 34.636196,13.231806 0 0 1 -34.6362,13.2318 34.636196,13.231806 0 0 1 -34.636195,-13.2318 34.636196,13.231806 0 0 1 34.636195,-13.23181 34.636196,13.231806 0 0 1 34.6362,13.23181 z"
       transform="matrix(0.07672552,0,0,0.20084027,35.55391,966.39058)" />
    <path
       sodipodi:type="arc"
       style="fill:#000000;fill-opacity:1;fill-rule:evenodd;stroke:none;display:inline"
       id="path2989-6-70"
       sodipodi:cx="120.25376"
       sodipodi:cy="137.98882"
       sodipodi:rx="34.636196"
       sodipodi:ry="13.231806"
       d="m 154.88996,137.98882 a 34.636196,13.231806 0 0 1 -34.6362,13.2318 34.636196,13.231806 0 0 1 -34.636195,-13.2318 34.636196,13.231806 0 0 1 34.636195,-13.23181 34.636196,13.231806 0 0 1 34.6362,13.23181 z"
       transform="matrix(0.07672552,0,0,0.20084027,27.777113,979.81928)" />
    <path
       sodipodi:type="arc"
       style="fill:#000000;fill-opacity:1;fill-rule:evenodd;stroke:none;display:inline"
       id="path2989-6-44"
       sodipodi:cx="120.25376"
       sodipodi:cy="137.98882"
       sodipodi:rx="34.636196"
       sodipodi:ry="13.231806"
       d="m 154.88996,137.98882 a 34.636196,13.231806 0 0 1 -34.6362,13.2318 34.636196,13.231806 0 0 1 -34.636195,-13.2318 34.636196,13.231806 0 0 1 34.636195,-13.23181 34.636196,13.231806 0 0 1 34.6362,13.23181 z"
       transform="matrix(0.07672552,0,0,0.20084027,28.162964,993.56317)" />
    <path
       sodipodi:type="arc"
       style="fill:#000000;fill-opacity:1;fill-rule:evenodd;stroke:none;display:inline"
       id="path2989-6-72"
       sodipodi:cx="120.25376"
       sodipodi:cy="137.98882"
       sodipodi:rx="34.636196"
       sodipodi:ry="13.231806"
       d="m 154.88996,137.98882 a 34.636196,13.231806 0 0 1 -34.6362,13.2318 34.636196,13.231806 0 0 1 -34.636195,-13.2318 34.636196,13.231806 0 0 1 34.636195,-13.23181 34.636196,13.231806 0 0 1 34.6362,13.23181 z"
       transform="matrix(0.07672552,0,0,0.20084027,24.902252,1009.8667)" />
    <path
       sodipodi:type="arc"
       style="fill:#000000;fill-opacity:1;fill-rule:evenodd;stroke:none;display:inline"
       id="path2989-6-902"
       sodipodi:cx="120.25376"
       sodipodi:cy="137.98882"
       sodipodi:rx="34.636196"
       sodipodi:ry="13.231806"
       d="m 154.88996,137.98882 a 34.636196,13.231806 0 0 1 -34.6362,13.2318 34.636196,13.231806 0 0 1 -34.636195,-13.2318 34.636196,13.231806 0 0 1 34.636195,-13.23181 34.636196,13.231806 0 0 1 34.6362,13.23181 z"
       transform="matrix(0.07672552,0,0,0.20084027,39.901527,928.13155)" />
    <path
       sodipodi:type="arc"
       style="fill:#000000;fill-opacity:1;fill-rule:evenodd;stroke:none;display:inline"
       id="path2989-6-65"
       sodipodi:cx="120.25376"
       sodipodi:cy="137.98882"
       sodipodi:rx="34.636196"
       sodipodi:ry="13.231806"
       d="m 154.88996,137.98882 a 34.636196,13.231806 0 0 1 -34.6362,13.2318 34.636196,13.231806 0 0 1 -34.636195,-13.2318 34.636196,13.231806 0 0 1 34.636195,-13.23181 34.636196,13.231806 0 0 1 34.6362,13.23181 z"
       transform="matrix(0.07672552,0,0,0.20084027,27.728202,939.87012)" />
    <path
       sodipodi:type="arc"
       style="fill:#000000;fill-opacity:1;fill-rule:evenodd;stroke:none;display:inline"
       id="path2989-6-33"
       sodipodi:cx="120.25376"
       sodipodi:cy="137.98882"
       sodipodi:rx="34.636196"
       sodipodi:ry="13.231806"
       d="m 154.88996,137.98882 a 34.636196,13.231806 0 0 1 -34.6362,13.2318 34.636196,13.231806 0 0 1 -34.636195,-13.2318 34.636196,13.231806 0 0 1 34.636195,-13.23181 34.636196,13.231806 0 0 1 34.6362,13.23181 z"
       transform="matrix(0.07672552,0,0,0.20084027,36.206053,951.17392)" />
    <path
       sodipodi:type="arc"
       style="fill:#000000;fill-opacity:1;fill-rule:evenodd;stroke:none;display:inline"
       id="path2989-6-10"
       sodipodi:cx="120.25376"
       sodipodi:cy="137.98882"
       sodipodi:rx="34.636196"
       sodipodi:ry="13.231806"
       d="m 154.88996,137.98882 a 34.636196,13.231806 0 0 1 -34.6362,13.2318 34.636196,13.231806 0 0 1 -34.636195,-13.2318 34.636196,13.231806 0 0 1 34.636195,-13.23181 34.636196,13.231806 0 0 1 34.6362,13.23181 z"
       transform="matrix(0.07672552,0,0,0.20084027,50.335804,957.91272)" />
    <path
       sodipodi:type="arc"
       style="fill:#000000;fill-opacity:1;fill-rule:evenodd;stroke:none;display:inline"
       id="path2989-6-635"
       sodipodi:cx="120.25376"
       sodipodi:cy="137.98882"
       sodipodi:rx="34.636196"
       sodipodi:ry="13.231806"
       d="m 154.88996,137.98882 a 34.636196,13.231806 0 0 1 -34.6362,13.2318 34.636196,13.231806 0 0 1 -34.636195,-13.2318 34.636196,13.231806 0 0 1 34.636195,-13.23181 34.636196,13.231806 0 0 1 34.6362,13.23181 z"
       transform="matrix(0.07672552,0,0,0.20084027,46.42295,976.39008)" />
    <path
       sodipodi:type="arc"
       style="fill:#000000;fill-opacity:1;fill-rule:evenodd;stroke:none;display:inline"
       id="path2989-6-93"
       sodipodi:cx="120.25376"
       sodipodi:cy="137.98882"
       sodipodi:rx="34.636196"
       sodipodi:ry="13.231806"
       d="m 154.88996,137.98882 a 34.636196,13.231806 0 0 1 -34.6362,13.2318 34.636196,13.231806 0 0 1 -34.636195,-13.2318 34.636196,13.231806 0 0 1 34.636195,-13.23181 34.636196,13.231806 0 0 1 34.6362,13.23181 z"
       transform="matrix(0.07672552,0,0,0.20084027,40.336287,996.17174)" />
  </g>
  <g
     inkscape:groupmode="layer"
     id="layer2"
     inkscape:label="Vort"
     transform="translate(0,-283.46455)"
     style="display:inline">
    <circle
       style="fill:none;stroke:#000000;stroke-width:1;stroke-linecap:round;stroke-linejoin:round;stroke-miterlimit:4;stroke-dasharray:none;stroke-opacity:1"
       id="path5354"
       cx="115.41259"
       cy="339.53217"
       r="22.175262" />
    <path
       style="fill:none;stroke:#000000;stroke-width:1.0629921;stroke-linecap:butt;stroke-linejoin:miter;stroke-miterlimit:4;stroke-opacity:1;stroke-dasharray:none;marker-end:url(#Arrow1Mend);display:inline"
       d="m 40.215446,312.59358 72.379794,25.63918"
       id="path5375"
       inkscape:connector-curvature="0"
       sodipodi:nodetypes="cc" />
    <text
       xml:space="preserve"
       style="font-size:40px;font-style:normal;font-weight:normal;line-height:125%;letter-spacing:0px;word-spacing:0px;fill:#000000;fill-opacity:1;stroke:none;font-family:Sans"
       x="133.55542"
       y="152.0153"
       id="text6228"
       sodipodi:linespacing="125%"><tspan
         sodipodi:role="line"
         id="tspan6230"
         x="133.55542"
         y="152.0153" /></text>
    <path
       style="fill:none;stroke:#000000;stroke-width:1.0629921;stroke-linecap:butt;stroke-linejoin:miter;stroke-miterlimit:4;stroke-opacity:1;stroke-dasharray:none;marker-end:url(#Arrow1Mend);display:inline"
       d="m 115.41259,339.53216 42.26445,0"
       id="path5375-5"
       inkscape:connector-curvature="0"
       sodipodi:nodetypes="cc" />
  </g>
  <g
     inkscape:groupmode="layer"
     id="layer3"
     inkscape:label="Text"
     style="display:inline"
     transform="translate(0,-283.46455)">
    <text
       xml:space="preserve"
       style="font-style:normal;font-weight:normal;font-size:14px;line-height:125%;font-family:Sans;text-align:end;letter-spacing:0px;word-spacing:0px;text-anchor:end;fill:#000000;fill-opacity:1;stroke:none"
       x="93.453445"
       y="320.47681"
       id="text6224"
       sodipodi:linespacing="125%"><tspan
         sodipodi:role="line"
         id="tspan6226"
         x="93.453445"
         y="320.47681">$\varepsilon$</tspan></text>
    <text
       xml:space="preserve"
       x="41.933823"
       y="306.13962"
       id="text6224-0-6"
       style="font-size:14px"><tspan
         sodipodi:role="line"
         id="tspan6226-8-8"
         x="41.933823"
         y="306.13962"
         style="font-style:normal;font-variant:normal;font-weight:normal;font-stretch:normal;font-size:14px;font-family:FreeSerif;-inkscape-font-specification:FreeSerif"><tspan
           style="font-weight:bold;-inkscape-font-specification:'FreeSerif Bold'"
           id="tspan3095"> $\vec{r}_v$, $\gamma_v$</tspan><tspan
           style="font-size:8px"
           id="tspan3032" /></tspan></text>
    <text
       xml:space="preserve"
       x="117.9658"
       y="332.41272"
       id="text6224-0-6-8"
       style="font-size:14px;display:inline"><tspan
         sodipodi:role="line"
         id="tspan6226-8-8-3"
         x="117.9658"
         y="332.41272"
         style="font-style:normal;font-variant:normal;font-weight:bold;font-stretch:normal;font-size:14px;font-family:FreeSerif;-inkscape-font-specification:'FreeSerif Bold'">$\vec{R}$</tspan></text>
    <text
       xml:space="preserve"
       x="142.25233"
       y="331.55109"
       id="text6224-0-0"
       style="font-size:14px;display:inline"><tspan
         sodipodi:role="line"
         id="tspan6226-8-33"
         x="142.25233"
         y="331.55109"
         style="font-style:normal;font-variant:normal;font-weight:normal;font-stretch:normal;font-size:14px;font-family:FreeSerif;-inkscape-font-specification:FreeSerif">$\vec{V}_d$</tspan></text>
  </g>
  <g
     inkscape:groupmode="layer"
     id="layer4"
     inkscape:label="blur"
     style="display:inline">
    <rect
       style="fill:url(#linearGradient3912);fill-opacity:1;fill-rule:nonzero;stroke:none;display:inline"
       id="rect3093"
       width="89.778267"
       height="147.38419"
       x="-43.041393"
       y="-3.63569" />
  </g>
</svg>
