<?xml version="1.0" encoding="UTF-8" standalone="no"?>
<!-- Created with Inkscape (http://www.inkscape.org/) -->

<svg
   xmlns:dc="http://purl.org/dc/elements/1.1/"
   xmlns:cc="http://creativecommons.org/ns#"
   xmlns:rdf="http://www.w3.org/1999/02/22-rdf-syntax-ns#"
   xmlns:svg="http://www.w3.org/2000/svg"
   xmlns="http://www.w3.org/2000/svg"
   xmlns:xlink="http://www.w3.org/1999/xlink"
   xmlns:sodipodi="http://sodipodi.sourceforge.net/DTD/sodipodi-0.dtd"
   xmlns:inkscape="http://www.inkscape.org/namespaces/inkscape"
   width="32"
   height="32"
   id="svg2"
   version="1.1"
   inkscape:version="0.47 r22583"
   style="display:inline"
   sodipodi:docname="appicon.svg"
   inkscape:export-filename="/home/rosik/git/vvhd/projects/vvhdcdf/icons/logo.png"
   inkscape:export-xdpi="1440"
   inkscape:export-ydpi="1440">
  <defs
     id="defs4">
    <linearGradient
       id="linearGradient5379">
      <stop
         id="stop5381"
         offset="0"
         style="stop-color:#ffffff;stop-opacity:1;" />
      <stop
         style="stop-color:#ffffff;stop-opacity:1;"
         offset="0.1860013"
         id="stop5383" />
      <stop
         id="stop5385"
         offset="1"
         style="stop-color:#0000ff;stop-opacity:1;" />
    </linearGradient>
    <linearGradient
       id="linearGradient5371">
      <stop
         style="stop-color:#000000;stop-opacity:1;"
         offset="0"
         id="stop5373" />
      <stop
         style="stop-color:#000000;stop-opacity:0;"
         offset="1"
         id="stop5375" />
    </linearGradient>
    <linearGradient
       id="linearGradient3917">
      <stop
         style="stop-color:#ffffff;stop-opacity:1;"
         offset="0"
         id="stop3919" />
      <stop
         id="stop5365"
         offset="0.19613881"
         style="stop-color:#ffffff;stop-opacity:1;" />
      <stop
         style="stop-color:#ff0000;stop-opacity:1;"
         offset="1"
         id="stop3921" />
    </linearGradient>
    <linearGradient
       id="linearGradient3909"
       inkscape:collect="always">
      <stop
         id="stop3911"
         offset="0"
         style="stop-color:#000000;stop-opacity:1;" />
      <stop
         id="stop3913"
         offset="1"
         style="stop-color:#000000;stop-opacity:0" />
    </linearGradient>
    <linearGradient
       inkscape:collect="always"
       id="linearGradient3899">
      <stop
         style="stop-color:#a3a3a3;stop-opacity:1;"
         offset="0"
         id="stop3901" />
      <stop
         style="stop-color:#a3a3a3;stop-opacity:0"
         offset="1"
         id="stop3903" />
    </linearGradient>
    <linearGradient
       inkscape:collect="always"
       id="linearGradient3891">
      <stop
         style="stop-color:#000000;stop-opacity:1;"
         offset="0"
         id="stop3893" />
      <stop
         style="stop-color:#000000;stop-opacity:0;"
         offset="1"
         id="stop3895" />
    </linearGradient>
    <inkscape:perspective
       sodipodi:type="inkscape:persp3d"
       inkscape:vp_x="0 : 526.18109 : 1"
       inkscape:vp_y="0 : 1000 : 0"
       inkscape:vp_z="744.09448 : 526.18109 : 1"
       inkscape:persp3d-origin="372.04724 : 350.78739 : 1"
       id="perspective10" />
    <inkscape:perspective
       id="perspective3598"
       inkscape:persp3d-origin="0.5 : 0.33333333 : 1"
       inkscape:vp_z="1 : 0.5 : 1"
       inkscape:vp_y="0 : 1000 : 0"
       inkscape:vp_x="0 : 0.5 : 1"
       sodipodi:type="inkscape:persp3d" />
    <inkscape:perspective
       id="perspective3612"
       inkscape:persp3d-origin="0.5 : 0.33333333 : 1"
       inkscape:vp_z="1 : 0.5 : 1"
       inkscape:vp_y="0 : 1000 : 0"
       inkscape:vp_x="0 : 0.5 : 1"
       sodipodi:type="inkscape:persp3d" />
    <inkscape:perspective
       id="perspective3637"
       inkscape:persp3d-origin="0.5 : 0.33333333 : 1"
       inkscape:vp_z="1 : 0.5 : 1"
       inkscape:vp_y="0 : 1000 : 0"
       inkscape:vp_x="0 : 0.5 : 1"
       sodipodi:type="inkscape:persp3d" />
    <inkscape:perspective
       id="perspective3666"
       inkscape:persp3d-origin="0.5 : 0.33333333 : 1"
       inkscape:vp_z="1 : 0.5 : 1"
       inkscape:vp_y="0 : 1000 : 0"
       inkscape:vp_x="0 : 0.5 : 1"
       sodipodi:type="inkscape:persp3d" />
    <inkscape:perspective
       id="perspective3688"
       inkscape:persp3d-origin="0.5 : 0.33333333 : 1"
       inkscape:vp_z="1 : 0.5 : 1"
       inkscape:vp_y="0 : 1000 : 0"
       inkscape:vp_x="0 : 0.5 : 1"
       sodipodi:type="inkscape:persp3d" />
    <linearGradient
       inkscape:collect="always"
       xlink:href="#linearGradient3891"
       id="linearGradient3897"
       x1="-0.47266936"
       y1="25.09873"
       x2="20.754215"
       y2="25.09873"
       gradientUnits="userSpaceOnUse"
       spreadMethod="pad" />
    <linearGradient
       inkscape:collect="always"
       xlink:href="#linearGradient3899"
       id="linearGradient3905"
       x1="2.0337224"
       y1="30.007782"
       x2="18.220493"
       y2="8.3839169"
       gradientUnits="userSpaceOnUse" />
    <linearGradient
       inkscape:collect="always"
       xlink:href="#linearGradient3909"
       id="linearGradient3907"
       gradientUnits="userSpaceOnUse"
       spreadMethod="pad"
       x1="2.104341"
       y1="29.976799"
       x2="6.7439237"
       y2="23.700783" />
    <linearGradient
       inkscape:collect="always"
       xlink:href="#linearGradient3917"
       id="linearGradient5367"
       x1="21.042803"
       y1="14.568093"
       x2="32.200672"
       y2="10.489672"
       gradientUnits="userSpaceOnUse" />
    <linearGradient
       inkscape:collect="always"
       xlink:href="#linearGradient5379"
       id="linearGradient5377"
       x1="19.134272"
       y1="5.9757333"
       x2="4.8560309"
       y2="16.373079"
       gradientUnits="userSpaceOnUse" />
    <linearGradient
       inkscape:collect="always"
       xlink:href="#linearGradient3917"
       id="linearGradient2862"
       gradientUnits="userSpaceOnUse"
       x1="21.042803"
       y1="14.568093"
       x2="32.200672"
       y2="10.489672" />
    <linearGradient
       inkscape:collect="always"
       xlink:href="#linearGradient5379"
       id="linearGradient2864"
       gradientUnits="userSpaceOnUse"
       x1="19.134272"
       y1="5.9757333"
       x2="4.8560309"
       y2="16.373079" />
  </defs>
  <sodipodi:namedview
     id="base"
     pagecolor="#ffffff"
     bordercolor="#666666"
     borderopacity="1.0"
     inkscape:pageopacity="0.0"
     inkscape:pageshadow="2"
     inkscape:zoom="24.09375"
     inkscape:cx="16"
     inkscape:cy="16"
     inkscape:document-units="px"
     inkscape:current-layer="g3882"
     showgrid="false"
     inkscape:object-nodes="true"
     inkscape:window-width="1920"
     inkscape:window-height="1023"
     inkscape:window-x="0"
     inkscape:window-y="0"
     inkscape:window-maximized="1" />
  <metadata
     id="metadata7">
    <rdf:RDF>
      <cc:Work
         rdf:about="">
        <dc:format>image/svg+xml</dc:format>
        <dc:type
           rdf:resource="http://purl.org/dc/dcmitype/StillImage" />
        <dc:title></dc:title>
      </cc:Work>
    </rdf:RDF>
  </metadata>
  <g
     inkscape:label="Layer 1"
     inkscape:groupmode="layer"
     id="layer1"
     transform="translate(0,-1020.3622)"
     style="display:inline" />
  <g
     inkscape:groupmode="layer"
     id="layer3"
     inkscape:label="cyl"
     style="display:inline">
    <g
       id="g3714"
       transform="matrix(0,1.263521,-1.263521,0,36.263308,1.5484723)">
      <g
         id="g3875"
         transform="matrix(1.047315,0,0,1.0460966,-0.59242893,0.11116504)">
        <g
           id="g3882"
           transform="translate(0,-0.01314058)">
          <g
             id="g2853"
             transform="matrix(0.92996109,0,0,0.92996109,0.8044986,1.1259693)">
            <path
               style="fill:#0000ff;fill-opacity:1;stroke:none;display:inline"
               d="m 22.048496,25.750323 c -1.103611,1.165336 -6.164457,4.945173 -17.5393788,-5.884947 -2.9550975,-2.813564 -2.2453997,-5.962911 0.053315,-7.007287 2.8246089,-1.283305 5.6458658,1.088718 6.3944668,2.456091 0.620716,1.133868 0.532694,2.03248 -0.167788,2.618729 -0.294675,0.246339 -2.2484107,0.447437 -3.1024487,-0.758269 -0.7414724,-1.046786 -0.1059256,-2.351602 1.0253248,-1.811244 -0.9103218,-0.919828 -3.032769,0.09237 -1.9437817,1.680211 1.1438941,1.667953 3.7185346,1.956181 4.5947386,3.127637 0.876286,1.171536 0.632678,2.05398 1.946998,3.534267 2.325765,2.619457 6.37929,1.515536 6.994047,0.380365 l 1.744507,1.664447 z"
               id="path3627"
               sodipodi:nodetypes="cssssscssscc" />
            <path
               style="fill:#ff0000;fill-opacity:1;stroke:none;display:inline"
               d="m 14.624233,24.080994 c 0,0 -0.984989,-0.233217 -1.905842,-2.975789 -0.510513,-1.520459 -1.478927,-1.771574 -1.972715,-2.307072 1.319695,-0.176516 1.464174,0.287336 2.407381,0.534973 1.164067,0.305624 1.074696,-0.518277 2.440815,-1.170254 0.869521,-0.414978 2.09237,-0.04648 2.842044,0.300923 l -3.811683,5.617219 z"
               id="path3651"
               sodipodi:nodetypes="cscsscc" />
            <path
               style="fill:#0b00ff;fill-opacity:1;stroke:none;display:inline"
               d="m 19.172572,18.393307 c -3.906235,-2.44756 -3.237924,-0.173061 -6.82197,-2.407754 0,0 1.747627,0.221286 2.374313,-0.367852 0.450299,-0.423311 0,-2.474636 0,-2.474636 0,0 1.446344,2.029975 2.374313,2.90937 1.334407,1.264561 4.280452,3.477867 4.280452,3.477867 l -2.207108,-1.136995 z"
               id="path3653"
               sodipodi:nodetypes="ccscscc" />
            <path
               style="fill:#ff0000;fill-opacity:1;stroke:none;display:inline"
               d="m 22.048496,25.750323 c 1.014361,-1.088782 3.870637,-4.64503 -2.44119,-11.537145 C 15.654515,9.8969816 10.09077,3.8096342 4.1909899,4.950012 -0.83569979,5.9216288 -1.2243096,9.8228757 -0.05602122,11.671659 1.4145854,13.998853 4.1915678,11.880778 6.3173346,11.546786 9.2412925,11.087386 11.021837,15.991793 12.985981,14.61447 15.277159,13.007822 11.946568,10.232148 10.812314,9.3642283 9.7560615,8.5559939 8.8164947,7.787595 7.0669187,7.5584125 9.728949,7.3643575 12.984236,9.8692571 14.825238,11.571336 c 1.648626,1.52674 0.932913,2.427852 3.273121,4.414067 1.756822,1.491075 2.728066,2.557616 3.013795,3.544897 -0.865037,1.776168 -0.08231,2.134493 -0.808165,4.555576 l 1.744507,1.664447 z"
               id="path3655"
               sodipodi:nodetypes="csssssscssccc" />
            <path
               sodipodi:type="arc"
               style="fill:#e2e2e2;fill-opacity:1;stroke:#000000;stroke-width:0.23140685;stroke-miterlimit:4;stroke-opacity:1;stroke-dasharray:none;display:inline"
               id="path2816"
               sodipodi:cx="13.189621"
               sodipodi:cy="22.387226"
               sodipodi:rx="4.311377"
               sodipodi:ry="4.311377"
               d="m 17.500998,22.387226 c 0,2.381108 -1.930269,4.311377 -4.311377,4.311377 -2.381108,0 -4.3113771,-1.930269 -4.3113771,-4.311377 0,-2.381108 1.9302691,-4.311377 4.3113771,-4.311377 2.381108,0 4.311377,1.930269 4.311377,4.311377 z"
               transform="matrix(0.69314327,-0.69314327,0.69314327,0.69314327,-6.3567467,15.897208)" />
            <path
               sodipodi:nodetypes="cscsc"
               transform="matrix(0,-0.75656413,0.75568397,0,-0.60449119,27.342392)"
               id="path3915"
               d="M 21.042802,14.568093 C 25.128908,9.391448 19.611453,4.0824696 22.661479,2.3657587 26.49322,0.20905857 29.30207,6.5174217 27.808041,10.749676 28.015564,8.0533647 25.891781,4.5727005 24.404669,5.85214 c -1.569004,1.349895 1.745103,4.299471 -3.361867,8.715953 z"
               style="fill:url(#linearGradient2862);fill-opacity:1;stroke:none" />
            <path
               sodipodi:nodetypes="cscsc"
               transform="matrix(0,-0.75656413,0.75568397,0,-0.60449119,27.342392)"
               id="path5369"
               d="M 5.8521401,13.654993 C 7.2426812,11.623952 12.189178,5.8923453 14.90013,5.9766537 16.217403,6.0176199 17.423854,7.2447061 17.390402,8.9649806 16.508114,7.6381009 15.967133,7.762162 14.277562,8.0103761 12.254815,8.3075368 8.5363831,11.760185 5.8521401,13.654993 z"
               style="fill:url(#linearGradient2864);fill-opacity:1;stroke:none" />
          </g>
        </g>
      </g>
    </g>
  </g>
</svg>
